<svg xmlns="http://www.w3.org/2000/svg" viewBox="0 0 1500 1000">
  <!-- Customer Lifecycle Management — abstract dashboard schematic.
       Shapes only, no data: a cover illustration, not a product screen. -->
  <rect width="1500" height="1000" fill="#FBFAF8"/>
  <!-- app frame -->
  <rect x="150" y="120" width="1200" height="760" rx="14" fill="#FFFFFF" stroke="#E3E1DB" stroke-width="2"/>
  <!-- sidebar -->
  <rect x="150" y="120" width="220" height="760" rx="14" fill="#F5F3EE"/>
  <rect x="150" y="120" width="220" height="760" rx="14" fill="none" stroke="#E3E1DB" stroke-width="2"/>
  <circle cx="196" cy="186" r="14" fill="#0B6E6B"/>
  <rect x="224" y="178" width="90" height="16" rx="8" fill="#DCD9D2"/>
  <g fill="#DCD9D2">
    <rect x="182" y="250" width="150" height="14" rx="7"/>
    <rect x="182" y="298" width="120" height="14" rx="7"/>
    <rect x="182" y="394" width="130" height="14" rx="7"/>
    <rect x="182" y="442" width="110" height="14" rx="7"/>
  </g>
  <rect x="170" y="334" width="180" height="38" rx="8" fill="#E4EFEE"/>
  <rect x="182" y="346" width="140" height="14" rx="7" fill="#0B6E6B"/>
  <!-- top bar -->
  <rect x="410" y="156" width="260" height="20" rx="10" fill="#DCD9D2"/>
  <rect x="1180" y="148" width="130" height="36" rx="18" fill="#0B6E6B"/>
  <!-- lifecycle stage strip -->
  <g>
    <rect x="410" y="220" width="212" height="64" rx="10" fill="#E4EFEE" stroke="#B9D8D5" stroke-width="2"/>
    <rect x="638" y="220" width="212" height="64" rx="10" fill="#E4EFEE" stroke="#B9D8D5" stroke-width="2"/>
    <rect x="866" y="220" width="212" height="64" rx="10" fill="#0B6E6B"/>
    <rect x="1094" y="220" width="216" height="64" rx="10" fill="#E4EFEE" stroke="#B9D8D5" stroke-width="2"/>
    <rect x="432" y="242" width="120" height="14" rx="7" fill="#8FBEBB"/>
    <rect x="660" y="242" width="110" height="14" rx="7" fill="#8FBEBB"/>
    <rect x="888" y="242" width="126" height="14" rx="7" fill="#CFE4E2"/>
    <rect x="1116" y="242" width="100" height="14" rx="7" fill="#8FBEBB"/>
  </g>
  <!-- KPI cards -->
  <g>
    <rect x="410" y="316" width="284" height="130" rx="10" fill="#FFFFFF" stroke="#E3E1DB" stroke-width="2"/>
    <rect x="718" y="316" width="284" height="130" rx="10" fill="#FFFFFF" stroke="#E3E1DB" stroke-width="2"/>
    <rect x="1026" y="316" width="284" height="130" rx="10" fill="#FFFFFF" stroke="#E3E1DB" stroke-width="2"/>
    <rect x="434" y="344" width="90" height="12" rx="6" fill="#DCD9D2"/>
    <rect x="434" y="380" width="140" height="26" rx="8" fill="#1A1A17" opacity="0.85"/>
    <rect x="742" y="344" width="90" height="12" rx="6" fill="#DCD9D2"/>
    <rect x="742" y="380" width="120" height="26" rx="8" fill="#1A1A17" opacity="0.85"/>
    <rect x="1050" y="344" width="90" height="12" rx="6" fill="#DCD9D2"/>
    <rect x="1050" y="380" width="150" height="26" rx="8" fill="#0B6E6B"/>
  </g>
  <!-- account table -->
  <g>
    <rect x="410" y="482" width="592" height="360" rx="10" fill="#FFFFFF" stroke="#E3E1DB" stroke-width="2"/>
    <rect x="410" y="482" width="592" height="56" rx="10" fill="#F5F3EE"/>
    <line x1="410" y1="538" x2="1002" y2="538" stroke="#E3E1DB" stroke-width="2"/>
    <g fill="#DCD9D2">
      <rect x="440" y="502" width="120" height="14" rx="7"/>
      <rect x="640" y="502" width="90" height="14" rx="7"/>
      <rect x="820" y="502" width="90" height="14" rx="7"/>
    </g>
    <g>
      <circle cx="456" cy="578" r="12" fill="#CFE4E2"/>
      <rect x="484" y="570" width="150" height="14" rx="7" fill="#DCD9D2"/>
      <rect x="820" y="570" width="120" height="16" rx="8" fill="#E4EFEE"/>
      <circle cx="456" cy="636" r="12" fill="#E7C9A9"/>
      <rect x="484" y="628" width="130" height="14" rx="7" fill="#DCD9D2"/>
      <rect x="820" y="628" width="100" height="16" rx="8" fill="#E4EFEE"/>
      <circle cx="456" cy="694" r="12" fill="#CFE4E2"/>
      <rect x="484" y="686" width="160" height="14" rx="7" fill="#DCD9D2"/>
      <rect x="820" y="686" width="130" height="16" rx="8" fill="#0B6E6B" opacity="0.25"/>
      <circle cx="456" cy="752" r="12" fill="#CFE4E2"/>
      <rect x="484" y="744" width="120" height="14" rx="7" fill="#DCD9D2"/>
      <rect x="820" y="744" width="110" height="16" rx="8" fill="#E4EFEE"/>
      <circle cx="456" cy="810" r="12" fill="#E7C9A9"/>
      <rect x="484" y="802" width="140" height="14" rx="7" fill="#DCD9D2"/>
      <rect x="820" y="802" width="90" height="16" rx="8" fill="#E4EFEE"/>
    </g>
  </g>
  <!-- retention chart -->
  <g>
    <rect x="1026" y="482" width="284" height="360" rx="10" fill="#FFFFFF" stroke="#E3E1DB" stroke-width="2"/>
    <rect x="1050" y="510" width="110" height="12" rx="6" fill="#DCD9D2"/>
    <polyline points="1056,780 1116,720 1176,742 1236,660 1290,600" fill="none" stroke="#0B6E6B" stroke-width="5" stroke-linecap="round" stroke-linejoin="round"/>
    <g fill="#0B6E6B">
      <circle cx="1116" cy="720" r="7"/>
      <circle cx="1236" cy="660" r="7"/>
    </g>
    <line x1="1050" y1="800" x2="1290" y2="800" stroke="#E3E1DB" stroke-width="2"/>
  </g>
</svg>
